# xmcd
#
# Track frame offsets: 
#        150
#        11857
#        21597
#        32557
#        45847
#        56975
#        69565
#        80780
#        93147
#        105262
#        119602
#        134995
#        144787
#        157785
#        170545
#
# Disc length: 2443 seconds
#
# Revision: 1
# Processed by: cddbd v1.5.2PL0 Copyright (c) Steve Scherf et al.
# Submitted via: ExactAudioCopy v0.99pb3
#
DISCID=c809890f
DTITLE=Lloyd Glenn - Honky Tonk Train
DYEAR=1900
DGENRE=Blues
TTITLE0=Sunday Morning Boogie
TTITLE1=Old Time Shuffle
TTITLE2=I Can't Stay Here
TTITLE3=Honky Tonk (Parts 1 and 2)
TTITLE4=Honky Tonk Train
TTITLE5=Blues Hangover
TTITLE6=Alberta
TTITLE7=Century Room
TTITLE8=It's You I'm Thinking Of
TTITLE9=Good Times Back Home
TTITLE10=My Woman
TTITLE11=Charli Henry
TTITLE12=I'm So Blue
TTITLE13=Yancey Special
TTITLE14=After Hours
EXTD=
EXTT0=
EXTT1=
EXTT2=
EXTT3=
EXTT4=
EXTT5=
EXTT6=
EXTT7=
EXTT8=
EXTT9=
EXTT10=
EXTT11=
EXTT12=
EXTT13=
EXTT14=
PLAYORDER=
